# xmcd
#
# Track frame offsets:
#	182
#	24637
#	40740
#	61685
#	82467
#	97127
#	121190
#	140717
#	157552
#	169452
#	186445
#	205072
#	227995
#	245930
#	259515
#
# Disc length: 3652 seconds
#
# Revision: 0
# Processed by: cddbd v1.4PL0 Copyright (c) Steve Scherf et al.
# Submitted via: EasyCDDAExtractor 4.5.0.2
#
DISCID=d70e420f
DTITLE=road music - vol 1
DYEAR=1996
DGENRE=Blues
TTITLE0=Van Wilks/ Soul Of A Man
TTITLE1=Van Wilks/ Cant' Go On Like This
TTITLE2=Van Wilks/ Boystown
TTITLE3=Ron Sunshine and The Smoking Section/ Call You Up
TTITLE4=Ron Sunshine and The Smoking Section/ Where Are You Now
TTITLE5=Ron Sunshine and The Smoking Section/ Fly Away
TTITLE6=Murray Poter/ Heart Of The Eagle
TTITLE7=Murray Poter/ Colours
TTITLE8=Murray Poter/ T.v. Repairman
TTITLE9=Children Of The Earth/ Roller Coaster Ride
TTITLE10=Children Of The Earth/ Children Of The Earth
TTITLE11=Children Of The Earth/ Trust Me
TTITLE12=Lawrence Martin/ Elders
TTITLE13=Lawrence Martin/ Canada O'daskey
TTITLE14=Lawrence Martin/ Watche Ay
EXTD=
EXTT0=
EXTT1=
EXTT2=
EXTT3=
EXTT4=
EXTT5=
EXTT6=
EXTT7=
EXTT8=
EXTT9=
EXTT10=
EXTT11=
EXTT12=
EXTT13=
EXTT14=
PLAYORDER=
